<svg xmlns="http://www.w3.org/2000/svg" version="1.1" xmlns:xlink="http://www.w3.org/1999/xlink" viewBox="0 0 200 200" width="200" height="200"><metadata><rdf:RDF xmlns:rdf="http://www.w3.org/1999/02/22-rdf-syntax-ns#" xmlns:dc="http://purl.org/dc/elements/1.1/"><rdf:Description><dc:creator>RealFaviconGenerator</dc:creator><dc:source>https://realfavicongenerator.net</dc:source></rdf:Description></rdf:RDF></metadata><rect width="200" height="200" fill="url('#gradient')"></rect><defs><linearGradient id="gradient" gradientTransform="rotate(179 0.5 0.5)"><stop offset="0%" stop-color="#dee90b"></stop><stop offset="100%" stop-color="#d9e241"></stop></linearGradient></defs><g><g fill="#1b3855" transform="matrix(4.55604991861096,0,0,4.55604991861096,16.396874639684583,132.39777320860782)" stroke="#000000" stroke-width="0"><path d="M12.24-14.22L12.24-11.57L7.97-11.57L7.97 0L4.54 0L4.54-11.57L0.35-11.57L0.35-14.22L12.24-14.22ZM21.50-4.81L24.91-4.81Q24.84-3.33 24.11-2.19Q23.38-1.05 22.06-0.43Q20.73 0.20 19.03 0.20L19.03 0.20Q16.23 0.20 14.62-1.63Q13.01-3.46 13.01-6.79L13.01-6.79L13.01-7.49Q13.01-9.58 13.74-11.15Q14.46-12.71 15.83-13.57Q17.20-14.42 18.99-14.42L18.99-14.42Q21.58-14.42 23.15-13.06Q24.73-11.70 24.94-9.31L24.94-9.31L21.52-9.31Q21.48-10.61 20.87-11.17Q20.25-11.74 18.99-11.74L18.99-11.74Q17.71-11.74 17.12-10.78Q16.52-9.82 16.49-7.72L16.49-7.72L16.49-6.72Q16.49-4.44 17.07-3.47Q17.64-2.49 19.03-2.49L19.03-2.49Q20.21-2.49 20.84-3.05Q21.46-3.60 21.50-4.81L21.50-4.81ZM35.35-8.57L35.35-6.03L29.96-6.03L29.96-2.64L36.33-2.64L36.33 0L26.53 0L26.53-14.22L36.35-14.22L36.35-11.57L29.96-11.57L29.96-8.57L35.35-8.57Z"></path></g></g></svg>